<svg width="50" height="50" viewBox="0 0 50 50" fill="none" xmlns="http://www.w3.org/2000/svg">
<rect width="50" height="50" rx="25" fill="#2C3545" fill-opacity="0.1"/>
<path d="M23.5 21.75V19.75C23.5 18.1063 23.5 17.2844 23.046 16.7312C22.9629 16.6299 22.8701 16.5371 22.7688 16.454C22.2156 16 21.3937 16 19.75 16C18.1063 16 17.2844 16 16.7312 16.454C16.6299 16.5371 16.5371 16.6299 16.454 16.7312C16 17.2844 16 18.1063 16 19.75V21.75C16 23.3937 16 24.2156 16.454 24.7688C16.5371 24.8701 16.6299 24.9629 16.7312 25.046C17.2844 25.5 18.1063 25.5 19.75 25.5C21.3937 25.5 22.2156 25.5 22.7688 25.046C22.8701 24.9629 22.9629 24.8701 23.046 24.7688C23.5 24.2156 23.5 23.3937 23.5 21.75Z" stroke="#2C3545" stroke-width="2" stroke-linejoin="round"/>
<path d="M20.75 28.5H18.75C18.0522 28.5 17.7033 28.5 17.4194 28.5861C16.7802 28.78 16.28 29.2802 16.0861 29.9194C16 30.2033 16 30.5522 16 31.25C16 31.9478 16 32.2967 16.0861 32.5806C16.28 33.2198 16.7802 33.72 17.4194 33.9139C17.7033 34 18.0522 34 18.75 34H20.75C21.4478 34 21.7967 34 22.0806 33.9139C22.7198 33.72 23.22 33.2198 23.4139 32.5806C23.5 32.2967 23.5 31.9478 23.5 31.25C23.5 30.5522 23.5 30.2033 23.4139 29.9194C23.22 29.2802 22.7198 28.78 22.0806 28.5861C21.7967 28.5 21.4478 28.5 20.75 28.5Z" stroke="#2C3545" stroke-width="2" stroke-linejoin="round"/>
<path d="M34 30.25V28.25C34 26.6063 34 25.7844 33.546 25.2312C33.4629 25.1299 33.3701 25.0371 33.2688 24.954C32.7156 24.5 31.8937 24.5 30.25 24.5C28.6063 24.5 27.7844 24.5 27.2312 24.954C27.1299 25.0371 27.0371 25.1299 26.954 25.2312C26.5 25.7844 26.5 26.6063 26.5 28.25V30.25C26.5 31.8937 26.5 32.7156 26.954 33.2688C27.0371 33.3701 27.1299 33.4629 27.2312 33.546C27.7844 34 28.6063 34 30.25 34C31.8937 34 32.7156 34 33.2688 33.546C33.3701 33.4629 33.4629 33.3701 33.546 33.2688C34 32.7156 34 31.8937 34 30.25Z" stroke="#2C3545" stroke-width="2" stroke-linejoin="round"/>
<path d="M31.25 16H29.25C28.5522 16 28.2033 16 27.9194 16.0861C27.2802 16.28 26.78 16.7802 26.5861 17.4194C26.5 17.7033 26.5 18.0522 26.5 18.75C26.5 19.4478 26.5 19.7967 26.5861 20.0806C26.78 20.7198 27.2802 21.22 27.9194 21.4139C28.2033 21.5 28.5522 21.5 29.25 21.5H31.25C31.9478 21.5 32.2967 21.5 32.5806 21.4139C33.2198 21.22 33.72 20.7198 33.9139 20.0806C34 19.7967 34 19.4478 34 18.75C34 18.0522 34 17.7033 33.9139 17.4194C33.72 16.7802 33.2198 16.28 32.5806 16.0861C32.2967 16 31.9478 16 31.25 16Z" stroke="#2C3545" stroke-width="2" stroke-linejoin="round"/>
</svg>
