<svg width="20" height="17" viewBox="0 0 20 17" fill="none" xmlns="http://www.w3.org/2000/svg">
<path d="M0.75 2.95605L6.84972 6.4122C9.09847 7.68635 10.0486 7.68635 12.2974 6.4122L18.3971 2.95605" stroke="#AAAAAA" stroke-width="1.5" stroke-linejoin="round"/>
<path d="M0.763915 9.552C0.821594 12.2569 0.850438 13.6093 1.84849 14.6112C2.84654 15.6131 4.23559 15.6479 7.01367 15.7177C8.72585 15.7608 10.4212 15.7608 12.1334 15.7177C14.9115 15.6479 16.3005 15.6131 17.2986 14.6112C18.2966 13.6093 18.3255 12.2569 18.3831 9.552C18.4017 8.68226 18.4017 7.81774 18.3831 6.948C18.3255 4.24311 18.2966 2.89067 17.2986 1.88882C16.3005 0.886969 14.9115 0.852072 12.1334 0.782269C10.4212 0.739245 8.72585 0.739245 7.01366 0.78226C4.23558 0.852054 2.84654 0.886951 1.84849 1.88881C0.850429 2.89066 0.821594 4.2431 0.763906 6.948C0.745359 7.81774 0.745368 8.68226 0.763915 9.552Z" stroke="#AAAAAA" stroke-width="1.5" stroke-linejoin="round"/>
</svg>
