<svg width="50" height="50" viewBox="0 0 50 50" fill="none" xmlns="http://www.w3.org/2000/svg">
<rect width="50" height="50" rx="25" fill="#2C3545" fill-opacity="0.1"/>
<path d="M25 34C29.9706 34 34 29.9706 34 25C34 20.0294 29.9706 16 25 16C20.0294 16 16 20.0294 16 25C16 29.9706 20.0294 34 25 34Z" stroke="#2C3545" stroke-width="2" stroke-linecap="round" stroke-linejoin="round"/>
<path d="M22.75 22.75C22.75 21.5074 23.7574 20.5 25 20.5C26.2426 20.5 27.25 21.5074 27.25 22.75C27.25 23.5212 26.862 24.2018 26.2705 24.6072C25.6555 25.0287 25 25.6044 25 26.35" stroke="#2C3545" stroke-width="2" stroke-linecap="round" stroke-linejoin="round"/>
<path d="M25.0001 29.5H25.009" stroke="#2C3545" stroke-width="2" stroke-linecap="round" stroke-linejoin="round"/>
</svg>
