<svg width="50" height="50" viewBox="0 0 50 50" fill="none" xmlns="http://www.w3.org/2000/svg">
<rect width="50" height="50" rx="25" fill="#2C3545" fill-opacity="0.1"/>
<path d="M28.7734 32.0315C27.5933 33 25.84 33 22.3333 33C18.8267 33 17.0734 33 15.8933 32.0315C15.6772 31.8542 15.4791 31.6561 15.3018 31.4401C14.3333 30.2599 14.3333 28.5067 14.3333 25C14.3333 21.4934 14.3333 19.74 15.3018 18.5599C15.4791 18.3439 15.6772 18.1458 15.8933 17.9685C17.0734 17 18.8267 17 22.3333 17C25.84 17 27.5933 17 28.7734 17.9685C28.9894 18.1458 29.1875 18.3439 29.3648 18.5599C30.3333 19.74 30.3333 21.4934 30.3333 25C30.3333 28.5067 30.3333 30.2599 29.3648 31.4401C29.1875 31.6561 28.9894 31.8542 28.7734 32.0315Z" stroke="#2C3545" stroke-width="2" stroke-linejoin="round"/>
<path d="M30.3333 26.0667V23.9333L33.1067 20.2355C33.3752 19.8774 33.7968 19.6667 34.2445 19.6667C35.0299 19.6667 35.6667 20.3034 35.6667 21.0889V28.9111C35.6667 29.6965 35.0299 30.3333 34.2445 30.3333C33.7968 30.3333 33.3752 30.1225 33.1067 29.7645L30.3333 26.0667Z" stroke="#2C3545" stroke-width="2" stroke-linejoin="round"/>
<path d="M22.3333 26.6C23.2169 26.6 23.9333 25.8836 23.9333 25C23.9333 24.1164 23.2169 23.4 22.3333 23.4M22.3333 26.6C21.4497 26.6 20.7333 25.8836 20.7333 25C20.7333 24.1164 21.4497 23.4 22.3333 23.4M22.3333 26.6V23.4" stroke="#2C3545" stroke-width="2" stroke-linejoin="round"/>
</svg>
