<svg width="50" height="50" viewBox="0 0 50 50" fill="none" xmlns="http://www.w3.org/2000/svg">
<rect width="50" height="50" rx="25" fill="#ED5735"/>
<path d="M28.5 21.0404C28.4588 19.8797 28.3216 19.1545 27.8645 18.5867C27.2114 17.7754 26.0944 17.5206 23.8605 17.0112L22.8591 16.7829C19.4649 16.0088 17.7678 15.6218 16.6339 16.5132C15.5 17.4045 15.5 19.1257 15.5 22.568V27.432C15.5 30.8743 15.5 32.5955 16.6339 33.4868C17.7678 34.3782 19.4649 33.9912 22.8591 33.2171L23.8605 32.9888C26.0944 32.4794 27.2114 32.2246 27.8645 31.4133C28.3216 30.8455 28.4588 30.1203 28.5 28.9595" stroke="white" stroke-width="2" stroke-linecap="round" stroke-linejoin="round"/>
<path d="M31.5 22.0117C31.5 22.0117 34.5 24.2212 34.5 25.0117C34.5 25.8023 31.5 28.0117 31.5 28.0117M34 25.0117H21.5" stroke="white" stroke-width="2" stroke-linecap="round" stroke-linejoin="round"/>
</svg>
