<svg width="50" height="50" viewBox="0 0 50 50" fill="none" xmlns="http://www.w3.org/2000/svg">
<rect width="50" height="50" rx="25" fill="#2C3545" fill-opacity="0.1"/>
<path fill-rule="evenodd" clip-rule="evenodd" d="M16.6039 34C13.1539 34 10.2077 33.4631 10.2077 31.3131C10.2077 29.163 13.1352 27.1782 16.6039 27.1782C20.0538 27.1782 23 29.1438 23 31.2938C23 33.443 20.0725 34 16.6039 34Z" stroke="#2C3545" stroke-width="2" stroke-linecap="round" stroke-linejoin="round"/>
<path fill-rule="evenodd" clip-rule="evenodd" d="M16.5971 24.1988C18.8611 24.1988 20.6961 22.3639 20.6961 20.0998C20.6961 17.8358 18.8611 16 16.5971 16C14.3331 16 12.4972 17.8358 12.4972 20.0998C12.4896 22.3562 14.3119 24.1912 16.5682 24.1988C16.5784 24.1988 16.5878 24.1988 16.5971 24.1988Z" stroke="#2C3545" stroke-width="2" stroke-linecap="round" stroke-linejoin="round"/>
<path fill-rule="evenodd" clip-rule="evenodd" d="M33.3961 34C29.9462 34 27 33.4631 27 31.3131C27 29.163 29.9275 27.1782 33.3961 27.1782C36.8461 27.1782 39.7923 29.1438 39.7923 31.2938C39.7923 33.443 36.8648 34 33.3961 34Z" stroke="#2C3545" stroke-width="2" stroke-linecap="round" stroke-linejoin="round"/>
<path fill-rule="evenodd" clip-rule="evenodd" d="M33.3894 24.1988C35.6534 24.1988 37.4884 22.3639 37.4884 20.0998C37.4884 17.8358 35.6534 16 33.3894 16C31.1254 16 29.2895 17.8358 29.2895 20.0998C29.2819 22.3562 31.1041 24.1912 33.3605 24.1988C33.3707 24.1988 33.38 24.1988 33.3894 24.1988Z" stroke="#2C3545" stroke-width="2" stroke-linecap="round" stroke-linejoin="round"/>
</svg>
