<svg width="50" height="50" viewBox="0 0 50 50" fill="none" xmlns="http://www.w3.org/2000/svg">
<rect width="50" height="50" rx="25" fill="#2C3545" fill-opacity="0.1"/>
<path fill-rule="evenodd" clip-rule="evenodd" d="M25 34C21.55 34 18.6039 33.4631 18.6039 31.3131C18.6039 29.163 21.5314 27.1782 25 27.1782C28.45 27.1782 31.3961 29.1438 31.3961 31.2938C31.3961 33.443 28.4686 34 25 34Z" stroke="#2C3545" stroke-width="2" stroke-linecap="round" stroke-linejoin="round"/>
<path fill-rule="evenodd" clip-rule="evenodd" d="M24.9932 24.1988C27.2572 24.1988 29.0922 22.3639 29.0922 20.0998C29.0922 17.8358 27.2572 16 24.9932 16C22.7292 16 20.8934 17.8358 20.8934 20.0998C20.8857 22.3562 22.708 24.1912 24.9643 24.1988C24.9745 24.1988 24.9839 24.1988 24.9932 24.1988Z" stroke="#2C3545" stroke-width="2" stroke-linecap="round" stroke-linejoin="round"/>
</svg>
