<svg width="50" height="50" viewBox="0 0 50 50" fill="none" xmlns="http://www.w3.org/2000/svg">
<rect width="50" height="50" rx="25" fill="#2C3545" fill-opacity="0.1"/>
<path d="M33.3295 20.6202L32.8852 19.8493C32.5493 19.2662 32.3813 18.9747 32.0955 18.8585C31.8097 18.7422 31.4864 18.8339 30.8399 19.0174L29.7417 19.3267C29.329 19.4219 28.8959 19.3679 28.5191 19.1743L28.2159 18.9994C27.8927 18.7924 27.6441 18.4872 27.5065 18.1284L27.206 17.2308C27.0083 16.6368 26.9095 16.3398 26.6743 16.1699C26.4391 16 26.1266 16 25.5016 16H24.4983C23.8734 16 23.561 16 23.3257 16.1699C23.0905 16.3398 22.9917 16.6368 22.7941 17.2308L22.4935 18.1284C22.3559 18.4872 22.1073 18.7924 21.7842 18.9994L21.481 19.1743C21.1041 19.3679 20.6711 19.4219 20.2583 19.3267L19.1601 19.0174C18.5136 18.8339 18.1904 18.7422 17.9045 18.8585C17.6187 18.9747 17.4507 19.2662 17.1148 19.8493L16.6705 20.6202C16.3556 21.1667 16.1982 21.44 16.2287 21.7309C16.2593 22.0218 16.4701 22.2562 16.8917 22.7251L17.8196 23.7625C18.0464 24.0496 18.2074 24.55 18.2074 24.9999C18.2074 25.45 18.0464 25.9502 17.8196 26.2374L16.8917 27.2748C16.4701 27.7437 16.2593 27.9781 16.2287 28.2691C16.1982 28.5599 16.3556 28.8332 16.6705 29.3797L17.1148 30.1506C17.4507 30.7336 17.6187 31.0252 17.9045 31.1414C18.1904 31.2577 18.5136 31.166 19.1601 30.9825L20.2583 30.6731C20.6711 30.5779 21.1042 30.632 21.4811 30.8257L21.7843 31.0007C22.1074 31.2077 22.3559 31.5128 22.4935 31.8715L22.7941 32.7693C22.9917 33.3633 23.0905 33.6603 23.3257 33.8302C23.561 34 23.8734 34 24.4983 34H25.5016C26.1266 34 26.4391 34 26.6743 33.8302C26.9095 33.6603 27.0083 33.3633 27.206 32.7693L27.5066 31.8715C27.6441 31.5128 27.8926 31.2077 28.2158 31.0007L28.5189 30.8257C28.8958 30.632 29.3289 30.5779 29.7417 30.6731L30.8399 30.9825C31.4864 31.166 31.8097 31.2577 32.0955 31.1414C32.3813 31.0252 32.5493 30.7336 32.8852 30.1506L33.3295 29.3797C33.6444 28.8332 33.8018 28.5599 33.7713 28.2691C33.7407 27.9781 33.5299 27.7437 33.1084 27.2748L32.1804 26.2374C31.9536 25.9502 31.7926 25.45 31.7926 24.9999C31.7926 24.55 31.9537 24.0496 32.1804 23.7625L33.1084 22.7251C33.5299 22.2562 33.7407 22.0218 33.7713 21.7309C33.8018 21.44 33.6444 21.1667 33.3295 20.6202Z" stroke="#2C3545" stroke-width="2" stroke-linecap="round"/>
<path d="M28.1113 24.993C28.1113 26.7327 26.701 28.143 24.9613 28.143C23.2216 28.143 21.8113 26.7327 21.8113 24.993C21.8113 23.2533 23.2216 21.843 24.9613 21.843C26.701 21.843 28.1113 23.2533 28.1113 24.993Z" stroke="#2C3545" stroke-width="2" stroke-linecap="round"/>
</svg>
