<svg width="20" height="20" viewBox="0 0 20 20" fill="none" xmlns="http://www.w3.org/2000/svg">
<path d="M5.94059 9.23406C5.63725 8.90072 5.18224 8.93072 4.97058 9.32489L0.0571923 19.1508C-0.124476 19.545 0.148027 20 0.573031 20H7.39643C7.60894 20 7.82061 19.8783 7.91227 19.6667C9.39812 16.6341 8.51811 11.9941 5.94059 9.23406Z" fill="#2C3545"/>
<path d="M9.51978 0.318128C6.79058 4.65484 6.97225 9.47656 8.76144 13.0858C10.5806 16.695 11.9456 19.485 12.0673 19.6667C12.1581 19.8792 12.3706 20 12.5831 20H19.4065C19.8307 20 20.1341 19.545 19.9224 19.1508C19.9224 19.1508 10.7331 0.773133 10.4906 0.318128C10.3081 -0.106043 9.79228 -0.106043 9.51978 0.318128Z" fill="#2C3545"/>
</svg>
