<svg width="20" height="20" viewBox="0 0 20 20" fill="none" xmlns="http://www.w3.org/2000/svg">
<path opacity="0.5" d="M11.7341 4.655L7.18829 9.2L7.49996 12.5L10.7991 12.8117L15.345 8.26583L11.7341 4.655Z" fill="#2C3545"/>
<path opacity="0.5" d="M13.3333 13.3017L15.5558 12.19L16.6666 9.96834L17.7775 12.19L20 13.3017L17.7775 14.4125L16.6666 16.635L15.5558 14.4125L13.3333 13.3017Z" fill="#2C3545"/>
<path opacity="0.5" d="M3.33331 3.33333L5.55581 2.2225L6.66664 0L7.77748 2.2225L9.99998 3.33333L7.77748 4.44416L6.66664 6.66666L5.55581 4.44416L3.33331 3.33333Z" fill="#2C3545"/>
<path opacity="0.5" d="M14.1667 2.91666L16.1109 1.94417L17.0834 0L18.0559 1.94417L20 2.91666L18.0559 3.88916L17.0834 5.83333L16.1109 3.88916L14.1667 2.91666Z" fill="#2C3545"/>
<path d="M0.7475 15.6408C0.265833 16.1233 0 16.7642 0 17.4467C0 18.1292 0.265833 18.77 0.7475 19.2525C1.22917 19.735 1.87083 20 2.55333 20C3.23583 20 3.87666 19.7342 4.35916 19.2525L10.8 12.8117L7.18916 9.20084L0.7475 15.6408Z" fill="#2C3545"/>
</svg>
