<svg width="18" height="20" viewBox="0 0 18 20" fill="none" xmlns="http://www.w3.org/2000/svg">
<path d="M15.1782 14.4358C12.8738 15.823 10.9976 16.4584 10.6476 16.5711L8.66591 17.2038L6.68604 16.5721C6.33425 16.4584 4.45983 15.8248 2.15272 14.4367C1.50731 14.0495 0.669185 14.2577 0.28103 14.9022C-0.107125 15.5476 0.101043 16.3848 0.746453 16.7739C3.24719 18.2792 5.28705 18.9883 5.85428 19.1701L8.25048 19.9355C8.38502 19.9782 8.52592 20 8.66591 20C8.8059 20 8.94589 19.9782 9.08133 19.9355L11.4794 19.1701C12.0448 18.9883 14.0864 18.2783 16.5845 16.7748C17.2299 16.3866 17.4371 15.5485 17.0499 14.9031C16.6617 14.2577 15.8227 14.0504 15.1782 14.4377V14.4358Z" fill="#2C3545"/>
<path d="M15.0835 9.8125C14.8145 10.007 14.5245 10.2107 14.2136 10.4234C11.781 12.0896 9.67846 12.7905 9.44848 12.865L8.66581 13.115L7.88495 12.865C7.65406 12.7914 5.55693 12.0942 3.11801 10.4234C2.80712 10.2107 2.51805 10.007 2.24807 9.8125C1.6372 9.37162 0.78453 9.50888 0.344561 10.1198C-0.0963181 10.7297 0.0418542 11.5824 0.651812 12.0233C0.938156 12.2305 1.24723 12.4478 1.5772 12.6732C4.27793 14.5231 6.61231 15.3203 7.05319 15.4612L8.25038 15.8439C8.38492 15.8866 8.52491 15.9084 8.66581 15.9084C8.80671 15.9084 8.94579 15.8866 9.08123 15.8439L10.2812 15.4612C10.722 15.3194 13.061 14.5176 15.7544 12.6732C16.0853 12.4469 16.3935 12.2296 16.6807 12.0233C17.2916 11.5824 17.4288 10.7297 16.988 10.1198C16.5471 9.50798 15.6944 9.37253 15.0845 9.8125H15.0835Z" fill="#2C3545"/>
<path d="M0.463604 7.02361C0.510874 7.06724 1.62989 8.10444 3.7352 9.54525C6.08958 11.1579 8.13126 11.8206 8.21671 11.8478C8.36306 11.8942 8.51396 11.9178 8.66577 11.9178C8.81758 11.9178 8.96847 11.8942 9.11483 11.8478C9.20028 11.8206 11.242 11.1588 13.5963 9.54525C15.7007 8.10444 16.8207 7.06724 16.8679 7.02361C17.1643 6.74726 17.3324 6.36184 17.3324 5.95823C17.3324 5.55462 17.1643 5.16828 16.867 4.89285C16.8216 4.84921 15.7007 3.81292 13.5963 2.37211C11.241 0.758584 9.20028 0.0968115 9.11483 0.0695407C8.82212 -0.0231802 8.50941 -0.0231802 8.21671 0.0695407C8.13126 0.0968115 6.08958 0.758584 3.7352 2.37211C1.6308 3.81292 0.510874 4.85012 0.464513 4.89285C0.16817 5.16919 0 5.55462 0 5.95823C0 6.36184 0.167261 6.74726 0.463604 7.02361Z" fill="#2C3545"/>
</svg>
