<svg width="10" height="9" viewBox="0 0 10 9" fill="none" xmlns="http://www.w3.org/2000/svg">
<path d="M4.94444 1.83325L4.94444 8.05547" stroke="#2C3545" stroke-linecap="round"/>
<path d="M2.26914 0.62686C3.75411 0.909599 4.63916 1.50103 4.94444 1.84057C5.24973 1.50103 6.13478 0.909599 7.61975 0.62686C8.37205 0.483624 8.74819 0.412006 9.06854 0.686508C9.38889 0.961011 9.38889 1.40677 9.38889 2.29827V5.50221C9.38889 6.31736 9.38889 6.72494 9.18329 6.97941C8.97769 7.23387 8.52505 7.32006 7.61975 7.49243C6.81274 7.64608 6.18291 7.8909 5.72703 8.13692C5.2785 8.37897 5.05422 8.5 4.94444 8.5C4.83467 8.5 4.61039 8.37897 4.16186 8.13692C3.70597 7.8909 3.07615 7.64608 2.26914 7.49243C1.36384 7.32006 0.911198 7.23387 0.705599 6.97941C0.5 6.72494 0.5 6.31736 0.5 5.50221V2.29827C0.5 1.40677 0.5 0.961011 0.820348 0.686508C1.1407 0.412006 1.51684 0.483624 2.26914 0.62686Z" stroke="#2C3545" stroke-linecap="round" stroke-linejoin="round"/>
</svg>
